<?xml version="1.0" standalone="no"?>
<!DOCTYPE svg PUBLIC "-//W3C//DTD SVG 20010904//EN"
 "http://www.w3.org/TR/2001/REC-SVG-20010904/DTD/svg10.dtd">
<svg version="1.0" xmlns="http://www.w3.org/2000/svg"
 width="100.000000pt" height="100.000000pt" viewBox="0 0 100.000000 100.000000"
 preserveAspectRatio="xMidYMid meet">

<g transform="translate(0.000000,100.000000) scale(0.100000,-0.100000)"
fill="#000000" stroke="none">
<path d="M423 925 c-61 -43 -403 -733 -403 -814 0 -11 11 -28 25 -37 36 -23
75 -5 105 49 101 183 266 345 318 313 5 -3 12 -56 15 -118 7 -159 31 -213 104
-244 93 -40 192 10 267 136 41 67 86 180 86 213 0 32 -30 57 -68 57 -36 0 -50
-17 -81 -100 -27 -72 -73 -144 -106 -166 -24 -16 -27 -16 -42 -1 -13 12 -18
45 -23 136 -6 134 -18 161 -81 193 -37 20 -115 23 -166 9 l-33 -9 26 49 c14
28 56 100 95 161 73 118 77 136 37 171 -25 21 -47 22 -75 2z"/>
</g>
</svg>
