<svg id="layer-1" data-name="layer-1" xmlns="http://www.w3.org/2000/svg" viewBox="0 0 306.09 306.32">
  <defs>
    <style>
      .cls-1{fill:#ffe278;}.cls-2{fill:#b0d16f;}.cls-3{fill:#45c5ff;}.cls-4{fill:#0ca8ed;}.cls-5{fill:#1365c2;}.cls-6{fill:#f71e78;}.cls-7{fill:#ff776b;}.cls-8{fill:#ffb54c;}
    </style>
  </defs>
  <path class="cls-1" d="M153,24.94,121.12,89.05,153,153.16,221,130.4l22.76-67.91A127.83,127.83,0,0,0,153,24.94Z"/>
  <path class="cls-2" d="M153,24.94A127.78,127.78,0,0,0,62.38,62.49L85.14,130.4,153,153.16Z"/>
  <path class="cls-3" d="M62.38,62.49a127.81,127.81,0,0,0-37.56,90.67l64.11,31.92L153,153.16Z"/>
  <path class="cls-4" d="M24.82,153.16a127.79,127.79,0,0,0,37.56,90.66l67.9-22.76L153,153.16Z"/>
  <path class="cls-5" d="M62.38,243.82A127.79,127.79,0,0,0,153,281.38L185,217.27,153,153.16Z"/>
  <path class="cls-6" d="M153,281.38a127.82,127.82,0,0,0,90.67-37.56L221,175.92,153,153.16Z"/>
  <path class="cls-7" d="M243.71,243.82a127.81,127.81,0,0,0,37.56-90.66l-64.12-31.92L153,153.16Z"/>
  <path class="cls-8" d="M243.71,62.49,153,153.16H281.27a127.82,127.82,0,0,0-37.56-90.67Z"/>
</svg>